<svg xmlns="http://www.w3.org/2000/svg" xmlns:xlink="http://www.w3.org/1999/xlink" width="1440.041" height="177.2" viewBox="0 0 1440.041 177.2">
  <defs>
    <clipPath id="clip-path">
      <rect id="Rectangle_9747" data-name="Rectangle 9747" width="155.44" height="31.947" fill="none"/>
    </clipPath>
    <clipPath id="clip-path-2">
      <rect id="Rectangle_9748" data-name="Rectangle 9748" width="213.172" height="43.983" fill="none"/>
    </clipPath>
    <clipPath id="clip-path-3">
      <rect id="Rectangle_9753" data-name="Rectangle 9753" width="241.223" height="51.499" fill="none"/>
    </clipPath>
    <clipPath id="clip-path-4">
      <rect id="Rectangle_9754" data-name="Rectangle 9754" width="160.393" height="31.688" fill="none"/>
    </clipPath>
    <clipPath id="clip-path-5">
      <rect id="Rectangle_9755" data-name="Rectangle 9755" width="258.722" height="33.155" fill="none"/>
    </clipPath>
    <clipPath id="clip-path-6">
      <rect id="Rectangle_9757" data-name="Rectangle 9757" width="97.422" height="37.794" fill="none"/>
    </clipPath>
    <clipPath id="clip-path-7">
      <rect id="Rectangle_9759" data-name="Rectangle 9759" width="159.555" height="47.28" fill="none"/>
    </clipPath>
    <clipPath id="clip-path-8">
      <rect id="Rectangle_9760" data-name="Rectangle 9760" width="169.877" height="80.055" fill="none"/>
    </clipPath>
    <clipPath id="clip-path-9">
      <rect id="Rectangle_9761" data-name="Rectangle 9761" width="149.604" height="35.636" fill="none"/>
    </clipPath>
    <clipPath id="clip-path-10">
      <rect id="Rectangle_9762" data-name="Rectangle 9762" width="337.041" height="43.08" fill="none"/>
    </clipPath>
  </defs>
  <g id="Groupe_1616" data-name="Groupe 1616" transform="translate(-240 -6154.632)">
    <g id="Groupe_792" data-name="Groupe 792" transform="translate(240 6164.82)">
      <g id="Groupe_791" data-name="Groupe 791" transform="translate(0 0)" clip-path="url(#clip-path)">
        <path id="Tracé_74132" data-name="Tracé 74132" d="M105.3,8.516a2.707,2.707,0,0,0-2.785,2.606V26.487H83.645l-2.336-4.223-4.043-7.009V3.3A2.708,2.708,0,0,0,74.48.7H60.822A2.708,2.708,0,0,0,58.036,3.3V26.577H55.43L49.05,15.345V3.3A2.707,2.707,0,0,0,46.265.7H32.606A2.708,2.708,0,0,0,29.821,3.3V26.577H25.508l-6.02-23.9A2.726,2.726,0,0,0,16.792.7H9.334a2.8,2.8,0,0,0-2.7,1.976L.079,29a2.544,2.544,0,0,0,2.067,3.145H3.224A2.7,2.7,0,0,0,5.47,30.171L11.58,5.821h3.145l5.93,23.992a2.8,2.8,0,0,0,2.7,2.067h9.255a2.707,2.707,0,0,0,2.785-2.606V5.91h8.267V15.974a2.066,2.066,0,0,0,.359,1.258l7.458,13.209A2.831,2.831,0,0,0,53.9,31.789h7.009A2.708,2.708,0,0,0,63.7,29.183V5.91h8.267V15.974a2.062,2.062,0,0,0,.359,1.258l7.458,13.209A2.711,2.711,0,0,0,81.488,31.7a1.965,1.965,0,0,0,.719.09H105.48a2.708,2.708,0,0,0,2.785-2.606V11.212a3.01,3.01,0,0,0-2.965-2.7" transform="translate(0 -0.201)" fill="#fff"/>
        <path id="Tracé_74133" data-name="Tracé 74133" d="M188.413.048a2.717,2.717,0,0,0-3.235,2.067l-4.942,24.261H178.8L174.036,2.564a2.709,2.709,0,0,0-2.7-2.157h-5.212a2.709,2.709,0,0,0-2.7,2.157l-4.852,23.722h-1.438L152.291,2.564A2.709,2.709,0,0,0,149.6.407H123.357a2.708,2.708,0,0,0-2.785,2.606V20.984a2.791,2.791,0,0,0,5.571,0V5.709h21.206V5.8l4.762,23.722a2.709,2.709,0,0,0,2.7,2.157h6.02a2.709,2.709,0,0,0,2.7-2.157L168.375,5.8h.719l4.853,23.722a2.709,2.709,0,0,0,2.7,2.157h6.02a2.709,2.709,0,0,0,2.7-2.157L190.21,4.9V1.215a2.327,2.327,0,0,0-1.8-1.168" transform="translate(-34.77 0)" fill="#fff"/>
      </g>
    </g>
    <g id="Groupe_794" data-name="Groupe 794" transform="translate(498 6159.632)">
      <g id="Groupe_793" data-name="Groupe 793" transform="translate(0 0)" clip-path="url(#clip-path-2)">
        <path id="Tracé_74134" data-name="Tracé 74134" d="M116.019,18.992a1.434,1.434,0,0,1,1.405-1.261,1.238,1.238,0,0,1,1.237,1.241q0,.037,0,.074a2.113,2.113,0,0,1-.064.5l-4.6,18.779a3.531,3.531,0,0,1-3.573,2.6,3.456,3.456,0,0,1-3.461-2.561L103.007,24,99.078,38.366a3.554,3.554,0,0,1-3.568,2.561,3.438,3.438,0,0,1-3.466-2.619L87.486,19.232a1.215,1.215,0,0,1-.036-.3,1.27,1.27,0,0,1,1.332-1.2h.025a1.292,1.292,0,0,1,1.26.985l4.579,18.83c.132.559.437.83.916.83a.927.927,0,0,0,.937-.814l4.9-17.828a1.741,1.741,0,0,1,3.184-.006l4.936,17.836a.936.936,0,0,0,.947.815c.485,0,.789-.272.926-.825Z" transform="translate(-23.806 -4.824)" fill="#fff"/>
        <path id="Tracé_74135" data-name="Tracé 74135" d="M136.729,20.211a1.24,1.24,0,0,1-1.381-1.079,1.267,1.267,0,0,1-.009-.167,1.223,1.223,0,0,1,1.215-1.233c.033,0,.067,0,.1,0h8.179a6.334,6.334,0,0,1,6.328,6.34c0,.106,0,.213-.009.319V39.008a1.9,1.9,0,0,1-1.881,1.924c-.036,0-.073,0-.11,0h-8.436a6.6,6.6,0,1,1,0-13.193h7.7V24.553c0-2.476-1.469-4.344-3.737-4.344ZM148.422,38.38v-8.1h-7.69a4.14,4.14,0,0,0-4.015,4.094,4.062,4.062,0,0,0,4.015,4.009h7.69Z" transform="translate(-36.514 -4.827)" fill="#fff"/>
        <path id="Tracé_74136" data-name="Tracé 74136" d="M178.39,17.733a1.238,1.238,0,0,1,.069,2.476h-5.191c-4.4,0-6.277,2.311-6.277,6.83v4.3c0,4.876,2.108,7.123,6.277,7.123h5.122a1.233,1.233,0,1,1,.1,2.465c-.032,0-.065,0-.1,0h-5.122c-6,0-8.981-3.126-8.981-9.62v-4.26c0-6.048,2.955-9.309,8.981-9.309Z" transform="translate(-44.723 -4.827)" fill="#fff"/>
        <path id="Tracé_74137" data-name="Tracé 74137" d="M192.6,7.075a1.287,1.287,0,0,1,1.267-1.306l.09,0a1.31,1.31,0,0,1,1.373,1.244c0,.02,0,.04,0,.06v7.4h7.428a7.207,7.207,0,0,1,7.273,7.63V36.411a1.3,1.3,0,0,1-1.33,1.266c-.028,0-.057,0-.085-.005a1.224,1.224,0,0,1-1.312-1.13,1.112,1.112,0,0,1,0-.13V22.185c0-3.147-2.172-5.228-4.541-5.228H195.33v19.46a1.277,1.277,0,0,1-1.29,1.264c-.028,0-.056,0-.084,0a1.237,1.237,0,0,1-1.352-1.111,1.286,1.286,0,0,1-.006-.15Z" transform="translate(-52.43 -1.57)" fill="#fff"/>
        <path id="Tracé_74138" data-name="Tracé 74138" d="M225.3,11.985a1.318,1.318,0,0,1,1.328-1.306h.046a1.3,1.3,0,0,1,1.357,1.248c0,.018,0,.037,0,.056V15.82h5.851A1.308,1.308,0,0,1,235.305,17a1.184,1.184,0,0,1,.006.124,1.246,1.246,0,0,1-1.226,1.266,1.126,1.126,0,0,1-.131-.005h-5.926V31.864c0,3.375.991,5.01,4.233,5.01h1.693a1.3,1.3,0,0,1,1.357,1.241c0,.032,0,.063,0,.1a1.255,1.255,0,0,1-1.244,1.265c-.038,0-.075,0-.113,0h-1.693c-4.994,0-6.964-2.721-6.964-7.6V18.385h-2.424a1.285,1.285,0,0,1-.141-2.566c.047,0,.095,0,.141,0H225.3Z" transform="translate(-60.303 -2.907)" fill="#fff"/>
        <path id="Tracé_74139" data-name="Tracé 74139" d="M245.88,26.588c0-5.606,3.828-8.854,8.641-8.854,5.655,0,8.875,3.14,8.875,8.854v2.151a1.9,1.9,0,0,1-1.919,1.882l-.088,0H248.642c.053,5.542,1.3,7.855,5.761,7.855h6.916a1.23,1.23,0,0,1,1.341,1.108,1.1,1.1,0,0,1,.005.138,1.2,1.2,0,0,1-1.173,1.221l-.1,0h-7.022c-6.714,0-8.492-3.578-8.492-10.8Zm14.769-.213c-.053-4.03-2.1-6.16-6.123-6.16-3.626,0-5.836,2.439-5.91,6.149v1.991h12.032Z" transform="translate(-66.935 -4.827)" fill="#fff"/>
        <path id="Tracé_74140" data-name="Tracé 74140" d="M287.111,17.106a1.261,1.261,0,0,1,1.384,1.125c0,.034.005.069.006.1a1.214,1.214,0,0,1-1.207,1.222c-.032,0-.065,0-.1,0h-1.485c-4.244,0-6.262,2.5-6.262,6.522V39.5a1.268,1.268,0,0,1-1.271,1.265c-.034,0-.068,0-.1,0a1.228,1.228,0,0,1-1.341-1.1,1.118,1.118,0,0,1-.005-.156V18.284a1.039,1.039,0,0,1,.874-1.18,1.292,1.292,0,0,1,1.4.942,1.07,1.07,0,0,1,0,.215l.054,1.879c1.261-2.018,3.4-3.046,6.649-3.046h1.4Z" transform="translate(-75.33 -4.653)" fill="#fff"/>
        <path id="Tracé_74141" data-name="Tracé 74141" d="M62.408,16.094c-2.672-5.236-18.3-2.668-35.512,5.654,8.533-3.194,15.088-3.673,17.085-.654,3.077,4.669-5.808,16.069-20.258,26.53a115.977,115.977,0,0,0,10.946-4.9C52.776,33.489,65.2,21.569,62.4,16.1" transform="translate(-6.458 -3.641)" fill="#fff"/>
        <path id="Tracé_74142" data-name="Tracé 74142" d="M.393,31.529c2.672,5.236,18.3,2.668,35.512-5.654-8.533,3.194-15.088,3.673-17.085.654C15.743,21.862,24.631,10.462,39.08,0A115.932,115.932,0,0,0,28.132,4.9C10.019,14.13-2.4,26.056.393,31.529" transform="translate(0 0)" fill="#fff"/>
      </g>
    </g>
    <g id="Groupe_796" data-name="Groupe 796" transform="translate(814 6154.632)">
      <g id="Groupe_795" data-name="Groupe 795" transform="translate(0 0)" clip-path="url(#clip-path-3)">
        <path id="Tracé_74143" data-name="Tracé 74143" d="M268.345,26.559V22.317h-5.268V15.722l-.177.054-4.949,1.514-.1.03v5h-7.81V19.534a4.423,4.423,0,0,1,.861-2.95,3.038,3.038,0,0,1,2.414-.986,5.619,5.619,0,0,1,2.289.521l.194.087V11.738l-.091-.033a8.913,8.913,0,0,0-2.926-.391,8.571,8.571,0,0,0-4.15,1,7.092,7.092,0,0,0-2.848,2.815,8.389,8.389,0,0,0-1.009,4.131v3.06h-3.668v4.243h3.668V44.431h5.266V26.559h7.81V37.917c0,4.677,2.207,7.047,6.558,7.047a10.733,10.733,0,0,0,2.236-.248,6.182,6.182,0,0,0,1.629-.516l.069-.041V39.877l-.214.142a3.673,3.673,0,0,1-1.059.462,4.015,4.015,0,0,1-1.04.177,2.82,2.82,0,0,1-2.241-.817A4.4,4.4,0,0,1,263.076,37V26.559Zm-39,14.1a5.588,5.588,0,0,1-4.48-1.882,8,8,0,0,1-1.61-5.317A8.307,8.307,0,0,1,224.87,28a5.5,5.5,0,0,1,4.437-1.913,5.414,5.414,0,0,1,4.321,1.829,8.147,8.147,0,0,1,1.577,5.413,8.689,8.689,0,0,1-1.484,5.48,5.282,5.282,0,0,1-4.372,1.847m.234-18.874c-3.646,0-6.543,1.068-8.608,3.176s-3.11,5.024-3.11,8.67a11.278,11.278,0,0,0,3.036,8.276,11.014,11.014,0,0,0,8.149,3.058,11.235,11.235,0,0,0,8.438-3.22,11.878,11.878,0,0,0,3.11-8.584c0-3.516-.981-6.322-2.918-8.337a10.744,10.744,0,0,0-8.1-3.039m-20.209,0a9.518,9.518,0,0,0-6.1,1.885,6.017,6.017,0,0,0-2.377,4.907,6.859,6.859,0,0,0,.512,2.743,5.513,5.513,0,0,0,1.573,2.055,13.712,13.712,0,0,0,3.2,1.791,23.784,23.784,0,0,1,2.662,1.24,3.71,3.71,0,0,1,1.172.962,2.163,2.163,0,0,1,.326,1.254c0,1.486-1.112,2.209-3.4,2.209a9.358,9.358,0,0,1-2.879-.527,10.838,10.838,0,0,1-2.948-1.494l-.218-.157v5.07l.08.037a13.026,13.026,0,0,0,2.792.862,14.975,14.975,0,0,0,2.982.344,10.111,10.111,0,0,0,6.441-1.9,6.135,6.135,0,0,0,2.4-5.023,5.776,5.776,0,0,0-1.29-3.8,11.06,11.06,0,0,0-4.384-2.791,11.313,11.313,0,0,1-3.123-1.624,2.272,2.272,0,0,1-.63-1.7,1.9,1.9,0,0,1,.8-1.576,3.592,3.592,0,0,1,2.241-.633,9.168,9.168,0,0,1,2.668.411,8.592,8.592,0,0,1,2.33,1.08l.215.147v-4.81l-.083-.035a11.493,11.493,0,0,0-2.365-.66,14.435,14.435,0,0,0-2.595-.268m-22.2,18.874a5.586,5.586,0,0,1-4.48-1.882,7.99,7.99,0,0,1-1.609-5.317A8.3,8.3,0,0,1,182.692,28a5.494,5.494,0,0,1,4.436-1.913,5.413,5.413,0,0,1,4.32,1.829,8.143,8.143,0,0,1,1.578,5.413,8.684,8.684,0,0,1-1.484,5.48,5.28,5.28,0,0,1-4.372,1.847m.235-18.874c-3.647,0-6.544,1.068-8.608,3.176s-3.11,5.024-3.11,8.67a11.276,11.276,0,0,0,3.036,8.276,11.014,11.014,0,0,0,8.149,3.058,11.237,11.237,0,0,0,8.438-3.22,11.878,11.878,0,0,0,3.11-8.584c0-3.516-.981-6.322-2.918-8.337a10.743,10.743,0,0,0-8.1-3.039m-19.712,4.362v-3.83h-5.2V44.431h5.2V33.118a7.883,7.883,0,0,1,1.3-4.7,3.976,3.976,0,0,1,3.364-1.777,6.1,6.1,0,0,1,1.564.23,3.95,3.95,0,0,1,1.213.49l.218.159V22.279l-.084-.036a5.391,5.391,0,0,0-2.037-.31,5.329,5.329,0,0,0-3.478,1.247,7.045,7.045,0,0,0-2,2.966Zm-14.518-4.362a12.847,12.847,0,0,0-6.326,1.52,10.247,10.247,0,0,0-4.172,4.29,13.661,13.661,0,0,0-1.433,6.355,11.72,11.72,0,0,0,1.393,5.7,9.779,9.779,0,0,0,3.893,3.935,11.587,11.587,0,0,0,5.687,1.383,12.456,12.456,0,0,0,6.275-1.469l.068-.039V38.691l-.218.159a9.766,9.766,0,0,1-2.545,1.325,7.689,7.689,0,0,1-2.493.483,6.406,6.406,0,0,1-4.869-1.9,7.383,7.383,0,0,1-1.8-5.259,7.657,7.657,0,0,1,1.872-5.4,6.372,6.372,0,0,1,4.879-2.014,8.355,8.355,0,0,1,4.952,1.723l.218.158V22.95l-.07-.04a8.586,8.586,0,0,0-2.407-.814,14.4,14.4,0,0,0-2.908-.312m-15.513.533h-5.2V44.431h5.2Zm-2.548-9.42a3.132,3.132,0,0,0-2.216.869,2.866,2.866,0,0,0-.929,2.169,2.787,2.787,0,0,0,.919,2.126,3.169,3.169,0,0,0,2.227.848,3.211,3.211,0,0,0,2.236-.846,2.777,2.777,0,0,0,.93-2.128,2.922,2.922,0,0,0-.9-2.146,3.1,3.1,0,0,0-2.262-.892m-12.979,7.789V44.431h5.309V13.574H120.1l-9.339,22.92L101.7,13.574H94.048V44.43h4.989V20.684h.171l9.571,23.747h3.765l9.42-23.745Z" transform="translate(-27.122 -3.263)" fill="#fff"/>
        <rect id="Rectangle_9749" data-name="Rectangle 9749" width="24.47" height="24.47" fill="#fff"/>
        <rect id="Rectangle_9750" data-name="Rectangle 9750" width="24.47" height="24.47" transform="translate(27.019)" fill="#fff"/>
        <rect id="Rectangle_9751" data-name="Rectangle 9751" width="24.47" height="24.47" transform="translate(0 27.028)" fill="#fff"/>
        <rect id="Rectangle_9752" data-name="Rectangle 9752" width="24.47" height="24.47" transform="translate(27.019 27.028)" fill="#fff"/>
      </g>
    </g>
    <g id="Groupe_798" data-name="Groupe 798" transform="translate(1158 6164.506)">
      <g id="Groupe_797" data-name="Groupe 797" transform="translate(0 0)" clip-path="url(#clip-path-4)">
        <path id="Tracé_74144" data-name="Tracé 74144" d="M84.56,9.55a10,10,0,0,0-7.851,3.858V9.953H70.1V34.032H76.71v-13.7a5.158,5.158,0,0,1,5.451-5.087c2.735,0,5.566,1.9,5.566,5.087v13.7h6.612V19.106c0-5.537-3.962-9.556-9.778-9.556" transform="translate(-20.215 -2.754)" fill="#fff"/>
        <path id="Tracé_74145" data-name="Tracé 74145" d="M162.292,10.12l-5.978,16.4-5.977-16.4h-7.552l9.908,24.069h7.244l9.907-24.069Z" transform="translate(-41.176 -2.918)" fill="#fff"/>
        <path id="Tracé_74146" data-name="Tracé 74146" d="M51.908,26.629C49.125,28.688,47.535,29.18,45,29.18a7.325,7.325,0,0,1-5.332-1.953l16.9-7.012a13.037,13.037,0,0,0-2.886-6.722,12.077,12.077,0,0,0-9.51-3.945C36.9,9.549,31.419,14.912,31.419,22c0,7.267,5.494,12.446,13.481,12.446,4.474,0,9.049-2.121,11.189-4.6Zm-12.7-9.42a6.152,6.152,0,0,1,5.086-2.4,5.532,5.532,0,0,1,5.124,3.368L37.865,22.97a7.739,7.739,0,0,1,1.341-5.761" transform="translate(-9.061 -2.754)" fill="#fff"/>
        <path id="Tracé_74147" data-name="Tracé 74147" d="M21.729,25.207H6.7V0H0V31.278H21.729Z" transform="translate(0 0)" fill="#fff"/>
        <path id="Tracé_74148" data-name="Tracé 74148" d="M192.266,34.438c-7.231,0-12.9-5.387-12.9-12.444,0-6.978,5.7-12.445,12.986-12.445,7.23,0,12.895,5.387,12.895,12.445,0,6.977-5.7,12.444-12.984,12.444m0-19.223c-3.693,0-6.373,2.8-6.373,6.779a6.556,6.556,0,0,0,6.462,6.779c3.693,0,6.373-2.876,6.373-6.779a6.557,6.557,0,0,0-6.463-6.779" transform="translate(-51.727 -2.754)" fill="#fff"/>
        <path id="Tracé_74149" data-name="Tracé 74149" d="M120.734,34.438c-7.231,0-12.9-5.387-12.9-12.444,0-6.978,5.7-12.445,12.986-12.445,7.229,0,12.895,5.387,12.895,12.445,0,6.977-5.7,12.444-12.984,12.444m0-19.223c-3.693,0-6.373,2.8-6.373,6.779a6.556,6.556,0,0,0,6.462,6.779c3.693,0,6.372-2.876,6.372-6.779a6.556,6.556,0,0,0-6.462-6.779" transform="translate(-31.098 -2.754)" fill="#fff"/>
        <path id="Tracé_74150" data-name="Tracé 74150" d="M216.575,39.69h-1.07v-.608h2.8v.608h-1.07v2.859h-.664Zm2.476-.608h.709l1.048,1.643,1.046-1.643h.687v3.466H221.9V40.083l-1.07,1.666h-.068l-1.069-1.666v2.465h-.642Z" transform="translate(-62.147 -11.27)" fill="#fff"/>
      </g>
    </g>
    <g id="Groupe_800" data-name="Groupe 800" transform="translate(1421 6164.344)">
      <g id="Groupe_799" data-name="Groupe 799" transform="translate(0 0)" clip-path="url(#clip-path-5)">
        <path id="Tracé_74151" data-name="Tracé 74151" d="M104.71,10s.231-2.775-3.291-2.775-4.428,1.192-4.428,2.259.469,2.292,7.723,3.842,8.268,4.936,8.268,7.071a11.694,11.694,0,0,1-4.348,8.884c-3.415,2.587-9.605,3.362-11.876,3.362S82.67,34.393,82.67,22.7H93.128s-.4,3.3,3.922,3.3,5.417-1.468,5.417-2.454-.694-2.108-9.311-4.167-7.391-8.351-6.11-11.073S91.8,1.846,98.679.674s16.115-.356,16.115,9.321Z" transform="translate(-23.84 -0.076)" fill="#fff"/>
        <path id="Tracé_74152" data-name="Tracé 74152" d="M127.215,1.553l7.577,19.673-2.614,11.206h10.671L145.3,21.547l17.13-19.994H150.748l-8.272,10.6-3.308-10.6Z" transform="translate(-36.686 -0.448)" fill="#fff"/>
        <path id="Tracé_74153" data-name="Tracé 74153" d="M168.6,32.427l7.207-30.876h9.766l7.844,17.164,3.736-17.164h10.032L199.768,32.43h-9.6L182,15.245l-3.415,17.182Z" transform="translate(-48.621 -0.447)" fill="#fff"/>
        <path id="Tracé_74154" data-name="Tracé 74154" d="M217.5,32.427l7.2-30.876h9.766l7.844,17.164,3.735-17.164h10.033L248.66,32.43h-9.6l-8.164-17.182L227.476,32.43Z" transform="translate(-62.721 -0.447)" fill="#fff"/>
        <path id="Tracé_74155" data-name="Tracé 74155" d="M274.2,1.55l-7.364,30.878H293.73l1.919-7.206H279.111l1.28-4.963h12.966l1.761-6.563H281.671l1.388-5.07h15.8l1.815-7.083Z" transform="translate(-76.95 -0.445)" fill="#fff"/>
        <path id="Tracé_74156" data-name="Tracé 74156" d="M313.116,1.553l7.257,15.439L304.632,32.431h11.9L324,23.576l3.683,8.855h11.473l-7.365-15.955L346.572,1.553H334.565L328,9.967l-3.095-8.413Z" transform="translate(-87.85 -0.448)" fill="#fff"/>
        <path id="Tracé_74157" data-name="Tracé 74157" d="M42.066,22.483H27.835l.357.578-.327.529H42.034l-.327-.529Z" transform="translate(-8.027 -6.484)" fill="#fff"/>
        <path id="Tracé_74158" data-name="Tracé 74158" d="M41.752,45H55.27l2.424-3.922H39.328Z" transform="translate(-11.341 -11.846)" fill="#fff"/>
        <path id="Tracé_74159" data-name="Tracé 74159" d="M0,24.039l3.059,4.949H16.576l-3.058-4.949Z" transform="translate(0 -6.932)" fill="#fff"/>
        <path id="Tracé_74160" data-name="Tracé 74160" d="M55.432,24.039l-3.058,4.949H65.89l3.059-4.949Z" transform="translate(-15.104 -6.932)" fill="#fff"/>
        <path id="Tracé_74161" data-name="Tracé 74161" d="M26.638,24.039,23.58,28.989H43.865l-3.059-4.949Z" transform="translate(-6.8 -6.932)" fill="#fff"/>
        <path id="Tracé_74162" data-name="Tracé 74162" d="M12.956,45H26.474l2.421-3.922H10.531Z" transform="translate(-3.037 -11.846)" fill="#fff"/>
        <path id="Tracé_74163" data-name="Tracé 74163" d="M8.328,37.512H28.064l.379-.613.379.613H48.556l3.066-4.963H5.265Z" transform="translate(-1.518 -9.387)" fill="#fff"/>
        <path id="Tracé_74164" data-name="Tracé 74164" d="M19.823,16h14.23l3.125-5.067L40.311,16H53.831L43.941,0H30.425L26.939,5.642,23.45,0H9.934L.049,16H13.561l3.132-5.067Z" transform="translate(-0.014 0)" fill="#fff"/>
        <path id="Tracé_74165" data-name="Tracé 74165" d="M23.4,31.157l.1-.164h-.2Z" transform="translate(-6.718 -8.938)" fill="#fff"/>
        <path id="Tracé_74166" data-name="Tracé 74166" d="M52.191,31.157l.1-.164h-.2Z" transform="translate(-15.022 -8.938)" fill="#fff"/>
      </g>
    </g>
    <g id="Groupe_803" data-name="Groupe 803" transform="translate(240 6266.683)">
      <rect id="Rectangle_9756" data-name="Rectangle 9756" width="7.052" height="7.052" transform="translate(0 0.527)" fill="#fff"/>
      <g id="Groupe_802" data-name="Groupe 802" transform="translate(0 0)">
        <g id="Groupe_801" data-name="Groupe 801" clip-path="url(#clip-path-6)">
          <path id="Tracé_74167" data-name="Tracé 74167" d="M7.016,11.87H.341v25.4H7.016Zm44.37,25.648V31.294a15.511,15.511,0,0,1-2.409-.15,2.729,2.729,0,0,1-1.581-.7,2.82,2.82,0,0,1-.7-1.506,16.3,16.3,0,0,1-.15-2.459V17.592h4.843V11.87H46.543V1.957h-6.7V26.526a22.083,22.083,0,0,0,.527,5.245,7.337,7.337,0,0,0,1.782,3.363,7.163,7.163,0,0,0,3.262,1.832,19.472,19.472,0,0,0,5.094.552ZM89.733,0h-6.7V37.267h6.7ZM33.393,14.355a10.1,10.1,0,0,0-7.78-3.012,9.812,9.812,0,0,0-4.392.979,9.388,9.388,0,0,0-3.312,2.711l-.377.477V11.87h-6.6v25.4h6.651V24.217c.075-2.384.652-4.141,1.757-5.27A5.752,5.752,0,0,1,23.58,17.14,5.472,5.472,0,0,1,27.971,18.9a7.461,7.461,0,0,1,1.456,4.869V37.242h6.751V22.837c.025-3.614-.929-6.474-2.785-8.482M79.569,24.518a13.979,13.979,0,0,0-.954-5.144,13.762,13.762,0,0,0-2.685-4.191,12.227,12.227,0,0,0-4.141-2.811,13.59,13.59,0,0,0-5.32-1A13.2,13.2,0,0,0,61.3,12.4a13.52,13.52,0,0,0-4.191,2.811A13.089,13.089,0,0,0,54.3,19.4a12.772,12.772,0,0,0-1.029,5.17,13.637,13.637,0,0,0,.979,5.17,12.893,12.893,0,0,0,2.735,4.191,12.53,12.53,0,0,0,4.241,2.811,13.871,13.871,0,0,0,5.446,1.054A14.386,14.386,0,0,0,77.963,32.8l-4.818-3.664a8.791,8.791,0,0,1-6.424,2.836A7.566,7.566,0,0,1,62.1,30.667a6.441,6.441,0,0,1-2.409-3.538l-.075-.226H79.569Zm-19.9-2.334c0-1.857,2.133-5.094,6.725-5.12,4.593,0,6.751,3.238,6.751,5.094Z" transform="translate(-0.141 0)" fill="#fff"/>
          <path id="Tracé_74168" data-name="Tracé 74168" d="M162.109,56.716a2.487,2.487,0,0,0-1.3-1.3,2.5,2.5,0,0,0-.954-.2,2.394,2.394,0,0,0-.953.2,2.485,2.485,0,0,0-1.305,1.3,2.5,2.5,0,0,0-.2.954,2.406,2.406,0,0,0,.2.953,2.489,2.489,0,0,0,1.305,1.305,2.5,2.5,0,0,0,.953.2,2.409,2.409,0,0,0,.954-.2,2.491,2.491,0,0,0,1.3-1.305,2.363,2.363,0,0,0,0-1.907m-.4,1.757a1.9,1.9,0,0,1-1.079,1.079,2.079,2.079,0,0,1-.8.15,2.171,2.171,0,0,1-.8-.15,1.9,1.9,0,0,1-1.079-1.079,2.078,2.078,0,0,1-.15-.8,2.172,2.172,0,0,1,.15-.8,1.9,1.9,0,0,1,1.079-1.079,2.078,2.078,0,0,1,.8-.15,2.172,2.172,0,0,1,.8.15,1.9,1.9,0,0,1,1.079,1.079,2.079,2.079,0,0,1,.15.8,1.7,1.7,0,0,1-.15.8m-1.405-.6a.78.78,0,0,0,.477-.226.741.741,0,0,0,.2-.552.765.765,0,0,0-.251-.628,1.082,1.082,0,0,0-.753-.226h-1.1v2.836h.527V57.921h.376l.7,1.154h.552Zm-.276-.4H159.4v-.8h.627a.726.726,0,0,1,.226.05.256.256,0,0,1,.15.126.529.529,0,0,1,0,.451.665.665,0,0,1-.15.126.743.743,0,0,1-.226.05" transform="translate(-64.887 -22.762)" fill="#fff"/>
        </g>
      </g>
    </g>
    <g id="Groupe_805" data-name="Groupe 805" transform="translate(469 6268.881)">
      <g id="Groupe_804" data-name="Groupe 804" transform="translate(0 0)" clip-path="url(#clip-path-7)">
        <path id="Tracé_74169" data-name="Tracé 74169" d="M17.045,37.044a6.759,6.759,0,0,1-.67,2.961,6.254,6.254,0,0,1-1.9,2.293,9.316,9.316,0,0,1-2.85,1.51,11.437,11.437,0,0,1-3.633.5A13.716,13.716,0,0,1,3.744,43.7,12.638,12.638,0,0,1,0,41.515l2.068-3.354A14.306,14.306,0,0,0,4.75,40.008a5.567,5.567,0,0,0,2.515.615,3.519,3.519,0,0,0,2.459-.783,2.885,2.885,0,0,0,.95-2.125,3.259,3.259,0,0,0-.167-1.062,3.041,3.041,0,0,0-.615-1.006,12.318,12.318,0,0,0-1.285-1.118c-.5-.391-1.229-.894-2.068-1.509-.67-.5-1.285-1.006-1.9-1.509A14.1,14.1,0,0,1,2.961,30a8.162,8.162,0,0,1-1.229-1.844,5.531,5.531,0,0,1-.5-2.348,6.743,6.743,0,0,1,.615-2.738A6.849,6.849,0,0,1,3.576,21a8.086,8.086,0,0,1,2.574-1.34,10.987,10.987,0,0,1,3.294-.5,13.881,13.881,0,0,1,3.688.447,11.436,11.436,0,0,1,3.242,1.509l-1.9,2.961a6.956,6.956,0,0,0-4.024-1.342,3.221,3.221,0,0,0-2.124.67,1.994,1.994,0,0,0-.834,1.676,2.452,2.452,0,0,0,.73,1.733A24.029,24.029,0,0,0,10.793,29a34.352,34.352,0,0,1,2.962,2.348,12.242,12.242,0,0,1,1.9,1.9,5.056,5.056,0,0,1,.95,1.789,3.319,3.319,0,0,1,.447,2.012" transform="translate(0 -8.43)" fill="#fff"/>
        <path id="Tracé_74170" data-name="Tracé 74170" d="M54.014,31.354A10.847,10.847,0,0,0,52.392,25.1a5.076,5.076,0,0,0-4.359-2.293,5.36,5.36,0,0,0-4.582,2.4A10.908,10.908,0,0,0,41.778,31.8a10.722,10.722,0,0,0,1.676,6.371,5.263,5.263,0,0,0,4.587,2.293,4.344,4.344,0,0,0,2.85-.894,6.694,6.694,0,0,0,1.844-2.293,9.789,9.789,0,0,0,1.006-2.961,17.173,17.173,0,0,0,.279-2.962m6.706-.223a16.327,16.327,0,0,1-.834,5.2,13.365,13.365,0,0,1-2.4,4.135,10.679,10.679,0,0,1-8.271,3.744,12.857,12.857,0,0,1-2.068-.168,6.162,6.162,0,0,1-1.844-.67A11.825,11.825,0,0,1,43.563,42.2a17.422,17.422,0,0,1-1.733-1.789V55.664h-6.2V19.617h6.2v3.521a10.009,10.009,0,0,1,8.272-4.08,10.241,10.241,0,0,1,4.3.894,9.655,9.655,0,0,1,3.353,2.459,11.234,11.234,0,0,1,2.18,3.8,14.64,14.64,0,0,1,.783,4.918" transform="translate(-15.675 -8.384)" fill="#fff"/>
        <rect id="Rectangle_9758" data-name="Rectangle 9758" width="6.315" height="35.264" transform="translate(47.782)" fill="#fff"/>
        <path id="Tracé_74171" data-name="Tracé 74171" d="M120.771,44.045V40.806a12.05,12.05,0,0,1-3.744,2.961,10.325,10.325,0,0,1-4.471.894,9.658,9.658,0,0,1-4.806-1.117,6.568,6.568,0,0,1-2.8-3.354,3.7,3.7,0,0,1-.335-1.117c-.057-.391-.168-.834-.223-1.342A17.048,17.048,0,0,1,104.284,36V19.958H110.6v13.8a23.43,23.43,0,0,0,.167,2.8,5.811,5.811,0,0,0,.615,1.732,4.016,4.016,0,0,0,3.912,2.012,4.891,4.891,0,0,0,4.918-2.961,8.807,8.807,0,0,0,.5-1.733,21.472,21.472,0,0,0,.168-2.682V19.958h6.254V44.045Z" transform="translate(-45.883 -8.781)" fill="#fff"/>
        <path id="Tracé_74172" data-name="Tracé 74172" d="M169.58,43.6V29.8a23.3,23.3,0,0,0-.168-2.794,4.945,4.945,0,0,0-.615-1.733,4.016,4.016,0,0,0-3.912-2.012,5.946,5.946,0,0,0-3.074.73,4.8,4.8,0,0,0-1.9,2.18,6.6,6.6,0,0,0-.447,1.732,20.683,20.683,0,0,0-.111,2.627V43.544h-6.37V19.569h6.371v3.241a12.045,12.045,0,0,1,3.74-2.961,10.321,10.321,0,0,1,4.471-.894,9.032,9.032,0,0,1,4.807,1.174,6.568,6.568,0,0,1,2.794,3.353c.111.336.223.73.336,1.062a8.838,8.838,0,0,1,.223,1.285,16.676,16.676,0,0,1,.111,1.676V43.544Z" transform="translate(-67.309 -8.337)" fill="#fff"/>
        <path id="Tracé_74173" data-name="Tracé 74173" d="M217.665,35.767l-9.557-13.3v12.8h-6.427V0h6.427V20.734h.67l8.494-9.892,4.807,2.068-8.159,8.772L223.589,33.7Z" transform="translate(-88.736 0)" fill="#fff"/>
        <path id="Tracé_74174" data-name="Tracé 74174" d="M250.58,43.6V39.4L265.5,32.028,250.58,24.816V20.456l19.225,9.669v3.912Z" transform="translate(-110.25 -9.001)" fill="#fff"/>
        <path id="Tracé_74175" data-name="Tracé 74175" d="M252.261,9.337a2.152,2.152,0,1,1-2.18,2.124A2.21,2.21,0,0,1,252.2,9.28c-.056.057-.056.057.057.057m0,.335a1.772,1.772,0,0,0-1.734,1.81c0,.011,0,.023,0,.034a1.732,1.732,0,1,0,3.465,0,1.8,1.8,0,0,0-1.732-1.844m-.447,3.075h-.391v-2.4h.67a1.55,1.55,0,0,1,.73.168.545.545,0,0,1,.223.5.6.6,0,0,1-.5.559c.223,0,.335.223.391.558a1.271,1.271,0,0,0,.168.615h-.336a1.276,1.276,0,0,1-.167-.615.481.481,0,0,0-.447-.447h-.335Zm0-1.342h.279c.335,0,.559-.111.559-.391s-.168-.335-.615-.335h-.279v.73Z" transform="translate(-110.03 -4.083)" fill="#fff"/>
      </g>
    </g>
    <g id="Groupe_807" data-name="Groupe 807" transform="translate(1041 6251.777)">
      <g id="Groupe_806" data-name="Groupe 806" transform="translate(0 0)" clip-path="url(#clip-path-8)">
        <path id="Tracé_74176" data-name="Tracé 74176" d="M113.8,64.15c-1.426.6-2.815,1.314-4.285,1.769-5.638,1.738-11.255,3.585-16.971,5.033-5.463,1.381-11.015,2.448-16.573,3.4a123.342,123.342,0,0,1-14.838,1.885c-6.534.311-13.1.217-19.642-.024a49.784,49.784,0,0,1-16.38-3.41,23.293,23.293,0,0,1-7.8-4.842c-4.262-4.1-4.952-8.937-3.136-14.339,1.711-5.088,5.118-9.016,8.812-12.717A82.706,82.706,0,0,1,41.061,27.375c5.591-3.15,11.264-6.2,17.1-8.864A204.576,204.576,0,0,1,86.48,7.679a211.1,211.1,0,0,1,26.68-5.914A131.721,131.721,0,0,1,131.791.027c4.852-.042,9.732-.1,14.556.339,6.984.627,13.827,2.052,19.942,5.805,3.951,2.423,6.592,5.8,7.1,10.505a17.281,17.281,0,0,1-2.364,9.994,47.9,47.9,0,0,1-12.789,14.737A100.716,100.716,0,0,1,140.5,52.762a2.991,2.991,0,0,0-1.7,2.139c-.711,3.09-1.486,6.165-2.294,9.234-1.335,5.059-4.031,9.124-8.836,11.493a10.7,10.7,0,0,1-6.192,1.136c-3.734-.49-5.9-2.785-6.913-6.206a27.211,27.211,0,0,1-.543-4.629c-.066-.592-.166-1.181-.25-1.771.274-.473.581-.931.813-1.424a25.524,25.524,0,0,1,1.1-2.484c2.281-3.738,5.849-5.414,10.019-6.048,1.847-.281,3.694-.534,5.54-.772.935-.12,1.21-.651,1.134-1.707-.5.2-.884.34-1.263.5-5.8,2.416-12.15.859-14.092-6.533a16.746,16.746,0,0,1,.789-10.474c2.252-5.827,5.9-10.411,11.865-12.779,4.1-1.629,8.316-.877,10.772,2.1a3.973,3.973,0,0,0,3.678,1.6c1.65-.1,1.765.117,1.376,1.689q-2.442,9.863-4.888,19.725c-.264,1.066-.494,2.141-.741,3.212l.326.195a8.636,8.636,0,0,0,.985-.477A80.717,80.717,0,0,0,158.33,36.363c3.315-3.774,6.155-7.846,7.061-12.988a12.04,12.04,0,0,0-2.353-9.682c-2.575-3.459-6.245-5.322-10.135-6.805A58.127,58.127,0,0,0,134.917,3.51a122.8,122.8,0,0,0-27.391,1.462C99.751,6.348,91.979,7.865,84.341,9.846c-7.968,2.064-15.986,4.16-23.279,8.218-1.9,1.056-3.832,2.047-5.7,3.15-2.557,1.5-5.069,3.085-7.6,4.634a19.7,19.7,0,0,0,4.127.234c1.069-.039,1.4.362,1.145,1.4-.554,2.235-1.151,4.464-1.547,6.728a33.881,33.881,0,0,0-.691,6.434c.064,3.157,2.124,4.96,4.806,4.379a6.772,6.772,0,0,0,2.808-1.521,13.594,13.594,0,0,0,4.2-7.489c.672-2.831,1.354-5.659,1.964-8.5.217-1.02.657-1.5,1.75-1.438,1.212.074,2.433.049,3.649.007,1.086-.038,1.5.3,1.21,1.462-.713,2.866-1.36,5.748-1.986,8.634a11.444,11.444,0,0,0,.088,6.3c.848,2.436,2.795,3.414,5.148,2.359a10.005,10.005,0,0,0,3.164-2.4,14.883,14.883,0,0,0,3.242-6.88c.636-2.75,1.281-5.5,1.9-8.249.176-.783.543-1.225,1.412-1.2,1.346.036,2.693.025,4.04.015.908,0,1.258.332,1.009,1.285-.428,1.637-.79,3.294-1.153,4.948-.869,3.953-1.752,7.9-4,11.363-2.473,3.812-5.529,6.93-10.019,8.287a8.511,8.511,0,0,1-10.093-3.672c-.2-.308-.434-.6-.534-.728a55.472,55.472,0,0,1-6.031,3.789c-4.869,2.267-9.741.651-11.949-3.948a12.834,12.834,0,0,1-1.4-5.482,56.69,56.69,0,0,1,1.106-8.615c.35-2.075.91-4.114,1.427-6.394a5.31,5.31,0,0,0-.834.346A74.478,74.478,0,0,0,31.895,39.324a30.853,30.853,0,0,0-6.208,10.011A13.213,13.213,0,0,0,25.95,59.6a16.37,16.37,0,0,0,7.658,7.367c7.3,3.8,15.245,4.909,23.314,5.214a142.825,142.825,0,0,0,26.363-1.434A218.611,218.611,0,0,0,106.244,66.1l7.554-1.955m22.778-29.879c-.133-.834-.211-1.789-.449-2.7a3.837,3.837,0,0,0-5.3-2.874,8.378,8.378,0,0,0-2.861,1.729,13.846,13.846,0,0,0-4.369,10.116c-.056,2.172.462,4.373,2.75,5.333,2.057.863,3.88.032,5.488-1.366,3.074-2.672,4.295-6.187,4.75-10.224M120.244,66.494a3.27,3.27,0,0,0,4.333,3.613,6.077,6.077,0,0,0,4.287-3.866,60.587,60.587,0,0,0,1.789-6.387c.257-1.018-.263-1.225-1.176-.928-1.362.442-2.742.832-4.117,1.235-3.485,1.021-4.882,2.746-5.117,6.333" transform="translate(-3.584 -0.001)" fill="#fff"/>
        <path id="Tracé_74177" data-name="Tracé 74177" d="M6.1,72.546a52.6,52.6,0,0,0-1.931,6.424c-1,5.778,1.222,10.387,5.771,13.9a28.306,28.306,0,0,0,14.332,5.386c2.39.283,4.8.311,7.235.664-1,.152-2,.352-3.01.448a44.009,44.009,0,0,1-16.774-1.3c-3.163-.934-6.192-2.206-8.413-4.723a12.9,12.9,0,0,1-1.276-15.59c1.169-1.9,2.607-3.623,3.931-5.432l.135.226" transform="translate(-0.003 -19.572)" fill="#fff"/>
        <path id="Tracé_74178" data-name="Tracé 74178" d="M118.2,59.595c-.408,1.521-.815,2.976-1.179,4.436-.85,3.412-1.714,6.822-2.5,10.249a1.482,1.482,0,0,1-1.572,1.386,1.544,1.544,0,0,1-.238-.034c-1.211-.082-2.431-.04-3.647-.057-1.6-.02-1.686-.116-1.312-1.629q3.289-13.271,6.586-26.54c.984-3.96,2.013-7.909,2.939-11.882.259-1.106.772-1.579,1.877-1.443a4.867,4.867,0,0,0,3.808-1.2,13.3,13.3,0,0,1,8.728-3.238,8.907,8.907,0,0,1,8.336,5.806,16.4,16.4,0,0,1,.133,10.982A21.563,21.563,0,0,1,131.225,58.7c-3.9,2.522-8.026,3.5-12.393,1.039a3.2,3.2,0,0,0-.629-.145m16.131-17.428c-.186-2.173-.419-4.3-2.517-5.468a4.469,4.469,0,0,0-5.127.7,13.2,13.2,0,0,0-5.313,12.441c.482,4.207,4.113,5.61,7.534,3.074,3.613-2.68,5.036-6.49,5.424-10.755" transform="translate(-29.116 -8.022)" fill="#fff"/>
      </g>
    </g>
    <g id="Groupe_810" data-name="Groupe 810" transform="translate(760 6270.716)">
      <path id="Tracé_74179" data-name="Tracé 74179" d="M17.05,10.946,22.037,22.96H12.514ZM12.472,3.561,0,34.477H8.161l2.312-6.121H24.3l2.54,6.121h8.295L21.4,3.557Z" transform="translate(0 -1.058)" fill="#fff"/>
      <path id="Tracé_74180" data-name="Tracé 74180" d="M81.654,3.558h6.71v30.92H80.657V15.165l-8.341,9.7H71.137l-8.343-9.7V34.478H55.087V3.558H61.8l9.929,11.471Z" transform="translate(-16.379 -1.058)" fill="#fff" fill-rule="evenodd"/>
      <g id="Groupe_809" data-name="Groupe 809" transform="translate(0 0)">
        <g id="Groupe_808" data-name="Groupe 808" clip-path="url(#clip-path-9)">
          <path id="Tracé_74181" data-name="Tracé 74181" d="M124.466,3.558c11.288,0,17.092,7.027,17.092,15.505,0,8.886-5.622,15.414-17.953,15.414H110.819V3.558ZM118.527,28.81h5.033c7.753,0,10.065-5.259,10.065-9.793,0-5.3-2.856-9.792-10.156-9.792h-4.941Z" transform="translate(-32.95 -1.058)" fill="#fff" fill-rule="evenodd"/>
          <path id="Tracé_74182" data-name="Tracé 74182" d="M188.109,9.719H172.265L162.635.044,197.962,0V35.37l-9.853-9.9Z" transform="translate(-48.357 0)" fill="#fff" fill-rule="evenodd"/>
          <path id="Tracé_74183" data-name="Tracé 74183" d="M172.115,30.646l.046-14.292L162.13,26.386V40.5h14.51l9.853-9.853Z" transform="translate(-48.206 -4.863)" fill="#fff" fill-rule="evenodd"/>
        </g>
      </g>
    </g>
    <g id="Groupe_812" data-name="Groupe 812" transform="translate(1343 6270.943)">
      <g id="Groupe_811" data-name="Groupe 811" transform="translate(0 0)" clip-path="url(#clip-path-10)">
        <path id="Tracé_74184" data-name="Tracé 74184" d="M169.175,4.8V3.444l-.585-.393H145.268l-.388.388V4.8l.388.388h9.91l.389.389V33.956l.389.388h1.751l.388-.388V5.775l.389-.393h10.111Zm5.252,6.806c-6.222,0-9.925,4.466-9.925,10.879v.978c0,6.221,3.113,11.656,10.308,11.656,6.221,0,8.552-4.082,8.941-6.8l-.384-.384h-1.755l-.384.384c-.974,2.72-2.729,4.471-6.226,4.471-5.833,0-7.584-5.444-7.584-8.164l.4-.384h16.126l.393-.393V22.487C184.337,16.074,180.84,11.608,174.427,11.608Zm0,2.331a6.639,6.639,0,0,1,5.631,2.621,8.513,8.513,0,0,1,1.554,4.957l-.384.393h-13.6l-.393-.393a8.507,8.507,0,0,1,1.554-4.957,6.645,6.645,0,0,1,5.641-2.621m14.38,9.329c0-6.225,3.108-9.526,7.584-9.526s6.217,2.72,6.8,5.444l.388.389h1.948l.388-.389c-.388-4.47-4.081-7.583-9.525-7.583-5.833,0-10.3,3.7-10.3,11.665,0,8.164,4.466,11.661,10.3,11.661,5.444,0,8.94-3.108,9.525-7.583l-.388-.384h-1.751l-.389.389c-.388,2.715-2.331,5.44-6.8,5.44S188.807,29.682,188.807,23.269Zm38.872,10.884V20.545c0-5.828-3.108-8.941-8.164-8.941a8.094,8.094,0,0,0-7.19,3.7h-.389V3.631l-.585-.585h-1.746l-.389.389V34.143l.389.393h1.746l.389-.388V21.9c0-5.056,2.336-8.164,7.195-8.164,3.693,0,5.828,2.331,5.828,6.8V34.148l.389.388H226.9l.777-.388Zm22.937,0V20.545c0-5.828-3.108-8.941-8.163-8.941a8.089,8.089,0,0,0-7.19,3.7h-.389l-.388-2.725-.389-.388h-1.362l-.389.388V34.152l.389.389h1.751l.388-.389V21.9c0-5.056,2.331-8.164,7.19-8.164,3.693,0,5.833,2.331,5.833,6.8V34.148l.388.388h1.943l.388-.388ZM263.64,11.8c-5.828,0-10.3,4.087-10.3,11.666s4.47,11.656,10.3,11.656,10.308-4.073,10.308-11.656S269.473,11.8,263.64,11.8m0,2.14a6.84,6.84,0,0,1,5.467,2.574,10.921,10.921,0,0,1,2.111,6.952,10.924,10.924,0,0,1-2.106,6.947,7.1,7.1,0,0,1-10.94,0,10.915,10.915,0,0,1-2.106-6.947,10.912,10.912,0,0,1,2.106-7.022,6.845,6.845,0,0,1,5.468-2.5m16.328,20.213V3.444l-.585-.393h-1.746l-.393.388V34.152l.393.389h1.746ZM293.384,11.8c-5.832,0-10.3,4.087-10.3,11.666s4.471,11.656,10.3,11.656,10.3-4.073,10.3-11.656S299.212,11.8,293.379,11.8Zm0,2.14a6.835,6.835,0,0,1,5.458,2.574,10.949,10.949,0,0,1,2.121,6.952,10.923,10.923,0,0,1-2.121,6.947,7.083,7.083,0,0,1-10.925,0,10.868,10.868,0,0,1-2.13-6.947,10.884,10.884,0,0,1,2.12-7.022,6.838,6.838,0,0,1,5.468-2.5Zm22.151-2.331c-6.221,0-9.526,5.046-9.526,11.656,0,6.8,3.113,11.665,9.526,11.665,4.082,0,6.226-1.751,7.195-3.693v.192c0,5.833-1.358,10.3-6.8,10.3-4.081,0-5.444-1.742-5.832-4.073l-.393-.4h-1.746l-.393.393c.389,3.7,3.118,6.216,8.557,6.216,5.833,0,9.526-3.693,9.526-12.634V12.577l-.393-.384H323.9l-.388.384-.393,2.725h-.384c-.969-1.751-3.113-3.7-7.195-3.7Zm0,2.14a6.346,6.346,0,0,1,5.276,2.35c1.24,1.577,1.919,3.96,1.919,7.167s-.678,5.589-1.919,7.167a7.078,7.078,0,0,1-10.551,0c-1.24-1.577-1.91-3.96-1.91-7.167,0-3.108.669-5.491,1.91-7.1a6.353,6.353,0,0,1,5.275-2.42M332.64,8.106V5.387L332.251,5H330.5l-.585.389V8.106l.389.389h1.751Zm0,26.046V12.577l-.389-.388H330.5l-.585.388V34.152l.389.389h1.751Zm13.023-22.544c-6.221,0-9.91,4.466-9.91,10.879v.983c0,6.216,3.108,11.656,10.3,11.656,6.225,0,8.557-4.087,8.946-6.807l-.393-.384h-1.746l-.393.384c-.973,2.72-2.715,4.471-6.216,4.471-5.833,0-7.584-5.444-7.584-8.164l.4-.384h16.126l.393-.393V22.492C355.582,16.266,351.883,11.608,345.663,11.608Zm0,2.331A6.658,6.658,0,0,1,351.3,16.56a8.517,8.517,0,0,1,1.554,4.963l-.393.388h-13.6l-.384-.393a8.513,8.513,0,0,1,1.554-4.957A6.639,6.639,0,0,1,345.663,13.939Zm28.962,14.769c0-4.082-2.331-5.828-6.8-6.8s-7.19-1.357-7.19-4.471c0-2.331,1.746-3.693,5.056-3.693,4.077,0,5.439,1.751,5.439,4.082l.389.389h1.751l.389-.389c0-4.47-3.7-6.221-8.164-6.221-5.055,0-7.584,2.724-7.584,5.832,0,3.694,2.725,5.445,7.195,6.222,4.471.969,6.8,1.357,6.8,5.055,0,2.331-1.357,4.078-5.833,4.078-4.082,0-5.828-2.331-5.828-5.056l-.393-.384h-1.746l-.389.389c0,4.081,3.108,7.19,8.552,7.19C371.905,35.126,374.625,32.4,374.625,28.708Z" transform="translate(-37.583 -0.791)" fill="#fff"/>
        <path id="Tracé_74185" data-name="Tracé 74185" d="M107.1,27.123v6.431H86.877V1.84h7.349V27.117H107.1ZM45.959,0,28.039,13.795A15.74,15.74,0,0,0,12.873,1.84H0V33.554H12.873c7.35,0,13.786-5.055,15.167-11.951l17.92,13.791L63.888,21.6V33.554H84.11V27.117H70.792V1.84H63.429V13.786l-17.007,13.8-3.675-3.22,8.277-6.436,8.735-6.9L54.7,6.9,37.7,20.223l-3.675-3.216,17-12.873L45.968,0ZM6.89,8.276H12.4a7.975,7.975,0,0,1,3.31.73,8.973,8.973,0,0,1,2.79,2.027,9.674,9.674,0,0,1,1.919,3.056,10.639,10.639,0,0,1,.066,7.476,9.987,9.987,0,0,1-1.826,3.085,8.618,8.618,0,0,1-2.757,2.13,8,8,0,0,1-3.5.8H6.89Z" transform="translate(0 0)" fill="#fff"/>
      </g>
    </g>
  </g>
</svg>
