<svg xmlns="http://www.w3.org/2000/svg" xmlns:xlink="http://www.w3.org/1999/xlink" width="230.173" height="29.59" viewBox="0 0 230.173 29.59">
  <defs>
    <linearGradient id="linear-gradient" x1="-0.001" y1="0.499" x2="1.001" y2="0.499" gradientUnits="objectBoundingBox">
      <stop offset="0" stop-color="#e73e36"/>
      <stop offset="0.287" stop-color="#e50071"/>
      <stop offset="0.622" stop-color="#63257c"/>
      <stop offset="0.659" stop-color="#613382"/>
      <stop offset="0.735" stop-color="#585493"/>
      <stop offset="0.845" stop-color="#3882ae"/>
      <stop offset="0.967" stop-color="#00afc3"/>
    </linearGradient>
  </defs>
  <g id="Logo_1" transform="translate(-25.2 -38.5)">
    <g id="Groupe_19" data-name="Groupe 19" transform="translate(25.2 38.5)">
      <g id="Groupe_17" data-name="Groupe 17" transform="translate(0)">
        <path id="Tracé_4" data-name="Tracé 4" d="M40.372,68.343a4.583,4.583,0,0,1-4.57-4.57c0-3.58-1.752-5.332-5.332-5.332a4.57,4.57,0,1,1,0-9.14c3.58,0,5.332-1.752,5.332-5.332a4.537,4.537,0,0,1,4.418-4.57h.19a4.528,4.528,0,0,1,4.57,4.57v.038c0,3.542,1.752,5.294,5.294,5.294h.076c3.542,0,5.294-1.752,5.294-5.332a4.57,4.57,0,1,1,4.57,4.57c-3.58,0-5.332,1.752-5.332,5.332v.076c0,3.542,1.752,5.255,5.332,5.255s5.332-1.752,5.332-5.332a4.57,4.57,0,1,1,4.57,4.57c-3.58,0-5.332,1.752-5.332,5.332a4.57,4.57,0,1,1-9.14,0c0-3.58-1.752-5.332-5.294-5.332h0a4.544,4.544,0,0,1-3.808-2.018,4.7,4.7,0,0,1-.8-2.552V53.8c0-3.542-1.752-5.294-5.332-5.294s-5.332,1.752-5.332,5.332,1.752,5.332,5.332,5.332a4.583,4.583,0,0,1,4.57,4.57A4.649,4.649,0,0,1,40.372,68.343Z" transform="translate(-25.633 -39.057)" fill="url(#linear-gradient)"/>
        <path id="Tracé_5" data-name="Tracé 5" d="M39.786,39.033h.152a4.313,4.313,0,0,1,4.341,4.341h0c0,3.694,1.866,5.56,5.56,5.56h.076c3.694,0,5.56-1.866,5.56-5.56a4.341,4.341,0,1,1,4.341,4.341c-3.732,0-5.56,1.866-5.56,5.6v.038c0,3.694,1.866,5.522,5.56,5.522q5.6,0,5.6-5.6a4.341,4.341,0,1,1,4.341,4.341c-3.732,0-5.56,1.866-5.56,5.6a4.341,4.341,0,1,1-8.683,0c0-3.694-1.866-5.56-5.56-5.56h-.038a4.437,4.437,0,0,1-3.618-1.9,4.374,4.374,0,0,1-.724-2.437h0c0-3.694-1.866-5.56-5.6-5.56h0c-3.694,0-5.56,1.866-5.56,5.6s1.866,5.6,5.6,5.6a4.341,4.341,0,1,1-4.341,4.341c0-3.732-1.866-5.56-5.6-5.56a4.341,4.341,0,1,1,0-8.683q5.6,0,5.6-5.6a4.278,4.278,0,0,1,4.113-4.418m0-.5h0a4.741,4.741,0,0,0-3.009,1.219,4.591,4.591,0,0,0-1.638,3.618c0,3.466-1.638,5.1-5.1,5.1a4.837,4.837,0,1,0,0,9.673c3.466,0,5.1,1.6,5.1,5.1a4.837,4.837,0,1,0,4.837-4.837c-3.466,0-5.1-1.638-5.1-5.1,0-3.427,1.638-5.065,5.027-5.1h.038c3.466,0,5.065,1.6,5.1,5.027h0v.038a4.632,4.632,0,0,0,.838,2.7,4.749,4.749,0,0,0,4,2.133h0c3.427,0,5.027,1.638,5.027,5.1a4.837,4.837,0,0,0,9.673,0c0-3.466,1.6-5.1,5.1-5.1a4.837,4.837,0,1,0-4.837-4.837c0,3.466-1.638,5.1-5.1,5.1-3.389,0-5.065-1.638-5.1-5.027v-.076c0-3.466,1.6-5.1,5.1-5.1A4.837,4.837,0,1,0,54.9,43.337c0,3.466-1.6,5.065-5.027,5.1H49.8c-3.389,0-5.027-1.676-5.027-5.027h0v-.038a4.8,4.8,0,0,0-4.8-4.837Z" transform="translate(-25.2 -38.5)"/>
      </g>
      <g id="Groupe_18" data-name="Groupe 18" transform="translate(0 0.038)">
        <path id="Tracé_6" data-name="Tracé 6" d="M59.779,38.638a4.8,4.8,0,0,0-4.8,4.8c0,3.427-1.676,5.1-5.1,5.1s-5.1-1.676-5.1-5.065v-.038a4.8,4.8,0,0,0-3.389-4.608,4.434,4.434,0,0,0-1.447-.229,4.848,4.848,0,0,0-4.113,2.285A4.728,4.728,0,0,0,35.1,43.4c0,3.427-1.676,5.1-5.1,5.1a4.8,4.8,0,1,0,0,9.6c3.427,0,5.1,1.676,5.1,5.1a4.8,4.8,0,1,0,4.8-4.8c-3.427,0-5.1-1.676-5.1-5.1s1.676-5.1,5.065-5.1H39.9c3.427,0,5.1,1.676,5.1,5.1a4.909,4.909,0,0,0,4.875,4.875,4.8,4.8,0,0,0,4.8-4.8c0-3.427,1.676-5.1,5.1-5.1a4.818,4.818,0,0,0,0-9.635ZM38.262,47.93c-2.59.5-3.884,2.323-3.884,5.446q0,5.6,5.6,5.6a4.341,4.341,0,1,1-4.341,4.341c0-3.732-1.866-5.56-5.6-5.56a4.341,4.341,0,1,1,0-8.683c3.123,0,4.913-1.257,5.446-3.923a7.61,7.61,0,0,0,.152-1.676,4.478,4.478,0,0,1,.685-2.323c.038-.038.038-.076.076-.114l.076-.076a4.328,4.328,0,0,1,3.542-1.828,4.788,4.788,0,0,1,1.257.19,4.307,4.307,0,0,1,3.085,4.151h0a4.307,4.307,0,0,1-4.341,4.3h0A7.887,7.887,0,0,0,38.262,47.93Zm21.517-.152c-3.732,0-5.56,1.866-5.56,5.6a4.341,4.341,0,1,1-8.683,0c0-3.123-1.333-4.951-3.884-5.408a4.768,4.768,0,0,0,2.78-2.78c.5,2.513,2.323,3.846,5.408,3.846q5.6,0,5.6-5.6a4.341,4.341,0,1,1,4.341,4.341Z" transform="translate(-25.2 -38.6)"/>
      </g>
    </g>
    <g id="Groupe_22" data-name="Groupe 22" transform="translate(86.323 40.823)">
      <g id="Groupe_20" data-name="Groupe 20">
        <path id="Tracé_7" data-name="Tracé 7" d="M195.906,57.287c-5.522-.076-7.274-.99-7.274-3.389,0-2.932,2.78-4.837,7.007-4.837,3.085,0,5.522.914,7.083,2.59a1.262,1.262,0,0,0,.99.419,1.18,1.18,0,0,0,1.219-1.219,1.579,1.579,0,0,0-.3-.952c-1.752-2.056-4.913-3.2-8.8-3.2-5.9,0-9.749,2.856-9.749,7.2,0,4.075,2.552,5.827,9.635,5.9,5.751.076,7.693,1.181,7.693,3.846,0,2.97-2.742,4.837-7.2,4.837-3.846,0-6.817-1.1-8.378-3.123a1.106,1.106,0,0,0-.914-.419A1.18,1.18,0,0,0,185.7,66.16a1.7,1.7,0,0,0,.267.876c1.714,2.437,5.294,3.77,10.016,3.77,6.169,0,9.9-2.666,9.9-7.2C205.96,59.267,203.332,57.4,195.906,57.287Z" transform="translate(-185.7 -45.9)" fill="#fff"/>
        <path id="Tracé_8" data-name="Tracé 8" d="M261.8,77.015a1.208,1.208,0,0,0-.838.343,6.19,6.19,0,0,1-5.141,2.4c-3.732,0-6.322-2.628-6.322-6.512s2.552-6.512,6.322-6.512a6.418,6.418,0,0,1,4.76,1.942,1.337,1.337,0,0,0,.952.457,1.07,1.07,0,0,0,1.1-1.142,1.164,1.164,0,0,0-.267-.762,8.784,8.784,0,0,0-6.512-2.628c-5.179,0-8.759,3.5-8.759,8.683,0,5.141,3.58,8.683,8.759,8.683a8.378,8.378,0,0,0,6.893-3.123,1,1,0,0,0,.19-.647A1.09,1.09,0,0,0,261.8,77.015Z" transform="translate(-223.717 -56.983)" fill="#fff"/>
        <path id="Tracé_9" data-name="Tracé 9" d="M312.7,64.69a1.144,1.144,0,0,0-1.219,1.295v1.638H311.4a7.625,7.625,0,0,0-6.626-3.123c-4.989,0-8.378,3.466-8.378,8.683s3.351,8.683,8.378,8.683a7.625,7.625,0,0,0,6.626-3.123h.076v1.638a1.162,1.162,0,0,0,1.219,1.295,1.135,1.135,0,0,0,1.181-1.295v-14.4C313.88,65.147,313.5,64.69,312.7,64.69Zm-7.5,15c-3.732,0-6.322-2.628-6.322-6.512s2.552-6.512,6.322-6.512a6.129,6.129,0,0,1,6.322,6.512A6.13,6.13,0,0,1,305.2,79.7Z" transform="translate(-254.242 -56.922)" fill="#fff"/>
        <path id="Tracé_10" data-name="Tracé 10" d="M356.319,44.6a1.162,1.162,0,0,0-1.219,1.295V68.059a1.2,1.2,0,1,0,2.4,0V45.895A1.153,1.153,0,0,0,356.319,44.6Z" transform="translate(-290.588 -44.6)" fill="#fff"/>
        <path id="Tracé_11" data-name="Tracé 11" d="M380.859,64.5c-5.179,0-8.759,3.5-8.759,8.683s3.58,8.683,8.949,8.683a8.63,8.63,0,0,0,6.931-3.047,1.03,1.03,0,0,0,.229-.724,1.06,1.06,0,0,0-1.1-1.1,1.209,1.209,0,0,0-.99.5,6.34,6.34,0,0,1-5.1,2.247,6.133,6.133,0,0,1-6.474-5.712H387.79a1.346,1.346,0,0,0,1.523-1.447C389.39,67.927,385.81,64.5,380.859,64.5Zm-6.208,7.426a6.309,6.309,0,0,1,12.453,0Z" transform="translate(-301.113 -56.921)" fill="#fff"/>
        <path id="Tracé_12" data-name="Tracé 12" d="M435.731,64.8c-2.856,0-4.913,1.142-6.055,3.275H429.6V66.209a1.2,1.2,0,1,0-2.4,0V80.566a1.2,1.2,0,1,0,2.4,0V74.359c0-4.875,2.171-7.274,6.093-7.274a1.1,1.1,0,0,0,1.181-1.181C436.911,65.181,436.454,64.8,435.731,64.8Z" transform="translate(-335.23 -57.107)" fill="#fff"/>
        <path id="Tracé_13" data-name="Tracé 13" d="M464.578,71.85c-3.732-.038-4.913-.647-4.913-2.171,0-1.866,1.866-3.009,4.913-3.009a7.805,7.805,0,0,1,4.722,1.561,1.494,1.494,0,0,0,.914.343,1.084,1.084,0,0,0,1.066-1.142,1.262,1.262,0,0,0-.419-.99c-1.523-1.333-3.618-1.942-6.436-1.942-4.38,0-7.236,2.056-7.236,5.179s1.828,4.456,7.236,4.532c3.961.076,5.217.762,5.217,2.475,0,1.828-1.9,2.97-5.027,2.97a8.241,8.241,0,0,1-5.56-1.752,1.511,1.511,0,0,0-.99-.457A1.084,1.084,0,0,0,457,78.591a1.342,1.342,0,0,0,.343.876c1.638,1.6,4.075,2.361,7.426,2.361,4.532,0,7.274-1.942,7.274-5.141C472.043,73.373,470.1,71.888,464.578,71.85Z" transform="translate(-353.681 -56.922)" fill="#fff"/>
        <path id="Tracé_14" data-name="Tracé 14" d="M537.286,48.823a2.353,2.353,0,0,0-2.209-1.523,2.316,2.316,0,0,0-2.209,1.523l-8.15,20.412a1.315,1.315,0,0,0,.724,1.752,1.34,1.34,0,0,0,1.752-.724l2.095-5.294h11.653L543,70.264a1.34,1.34,0,0,0,1.752.724,1.315,1.315,0,0,0,.724-1.752Zm-7.007,13.558,4.8-12.187,4.837,12.187Z" transform="translate(-395.541 -46.272)" fill="#fff"/>
        <path id="Tracé_15" data-name="Tracé 15" d="M590.257,47.4A1.214,1.214,0,0,0,589,48.771V69.679a1.2,1.2,0,0,0,1.257,1.371,1.241,1.241,0,0,0,1.295-1.371V48.771C591.513,47.9,591.057,47.4,590.257,47.4Z" transform="translate(-435.412 -46.334)" fill="#fff"/>
      </g>
      <g id="Groupe_21" data-name="Groupe 21" transform="translate(159.606 1.066)">
        <path id="Tracé_16" data-name="Tracé 16" d="M606.247,48.2H604.8v-.8h3.77v.8h-1.447v3.846h-.876Zm3.313-.8h.952l1.409,2.209,1.409-2.209h.914v4.646h-.876V48.733l-1.447,2.247h-.076L610.4,48.733v3.313h-.876V47.4Z" transform="translate(-604.8 -47.4)" fill="#fff"/>
      </g>
    </g>
  </g>
</svg>
