<?xml version="1.0" encoding="utf-8"?>
<!-- Generator: Adobe Illustrator 28.0.0, SVG Export Plug-In . SVG Version: 6.00 Build 0)  -->
<svg version="1.1" id="Calque_1" xmlns="http://www.w3.org/2000/svg" xmlns:xlink="http://www.w3.org/1999/xlink" x="0px" y="0px"
	 viewBox="0 0 321 252" style="enable-background:new 0 0 321 252;" xml:space="preserve">
<style type="text/css">
	.st0{fill:url(#Ellipse_74_00000024701733854448697020000015155815207243150480_);}
	.st1{opacity:0.997;fill:url(#Ellipse_67_00000087411019543298711510000008311650729298138270_);enable-background:new    ;}
	.st2{fill:url(#Ellipse_70_00000057865724851200133000000000635412623377312958_);}
	.st3{opacity:0.2;fill:url(#SVGID_1_);}
	.st4{opacity:0.2;fill:url(#SVGID_00000065773284375210122490000012091508113503701379_);}
	.st5{opacity:0.2;fill:url(#SVGID_00000065762663124039054900000003522848332271846314_);}
</style>
<g>
	
		<linearGradient id="Ellipse_74_00000080195405944193569500000011012698639956842148_" gradientUnits="userSpaceOnUse" x1="-93.5999" y1="756.5303" x2="-93.5999" y2="755.7923" gradientTransform="matrix(171 0 0 -171 16166 129426)">
		<stop  offset="0" style="stop-color:#000000;stop-opacity:0"/>
		<stop  offset="1" style="stop-color:#E40270"/>
	</linearGradient>
	
		<circle id="Ellipse_74" style="fill:url(#Ellipse_74_00000080195405944193569500000011012698639956842148_);" cx="160.4" cy="100" r="85.5"/>
	
		<linearGradient id="Ellipse_67_00000072267374088182370190000010404106538944227216_" gradientUnits="userSpaceOnUse" x1="-93.1087" y1="755.4385" x2="-93.1087" y2="755.9044" gradientTransform="matrix(309 0 0 -309 28931 233670)">
		<stop  offset="0" style="stop-color:#E40270"/>
		<stop  offset="1" style="stop-color:#000000;stop-opacity:0"/>
	</linearGradient>
	
		<circle id="Ellipse_67" style="opacity:0.997;fill:url(#Ellipse_67_00000072267374088182370190000010404106538944227216_);enable-background:new    ;" cx="160.4" cy="85" r="154.5"/>
	
		<linearGradient id="Ellipse_70_00000172420037063787029250000016952481881874440633_" gradientUnits="userSpaceOnUse" x1="-91.4001" y1="754.5967" x2="-91.4001" y2="754.2077" gradientTransform="matrix(-171 0 0 171 -15469 -128955)">
		<stop  offset="0" style="stop-color:#000000;stop-opacity:0"/>
		<stop  offset="1" style="stop-color:#E40270;stop-opacity:0.525"/>
	</linearGradient>
	
		<circle id="Ellipse_70" style="fill:url(#Ellipse_70_00000172420037063787029250000016952481881874440633_);" cx="160.4" cy="100" r="85.5"/>
</g>
<g>
	<linearGradient id="SVGID_1_" gradientUnits="userSpaceOnUse" x1="117.9924" y1="72.5853" x2="202.53" y2="72.5853">
		<stop  offset="1.198743e-03" style="stop-color:#FFFFFF;stop-opacity:0.3"/>
		<stop  offset="1" style="stop-color:#FFFFFF"/>
	</linearGradient>
	<path class="st3" d="M197.4,67.4h-27.6c-1.8-3.4-5.4-5.7-9.6-5.7s-7.7,2.3-9.6,5.7h-27.4c-2.9,0-5.2,2.3-5.2,5.2
		c0,2.9,2.3,5.2,5.2,5.2h27.4c1.8,3.4,5.4,5.7,9.6,5.7s7.7-2.3,9.6-5.7h27.6c2.9,0,5.2-2.3,5.2-5.2
		C202.5,69.7,200.2,67.4,197.4,67.4z"/>
	
		<linearGradient id="SVGID_00000032643697405968926500000007656078816266524551_" gradientUnits="userSpaceOnUse" x1="117.9924" y1="99.8465" x2="202.53" y2="99.8465">
		<stop  offset="1.198743e-03" style="stop-color:#FFFFFF;stop-opacity:0.3"/>
		<stop  offset="1" style="stop-color:#FFFFFF"/>
	</linearGradient>
	<path style="opacity:0.2;fill:url(#SVGID_00000032643697405968926500000007656078816266524551_);" d="M197.4,94.7h-58.9
		c-1.8-3.4-5.4-5.7-9.6-5.7c-5.8,0-10.6,4.6-10.9,10.4c0,0.2,0,0.4,0,0.5c0,0.2,0,0.4,0,0.5c0.3,5.8,5,10.4,10.9,10.4
		c4.1,0,7.7-2.3,9.6-5.7h58.9c2.9,0,5.2-2.3,5.2-5.2C202.5,97,200.2,94.7,197.4,94.7z"/>
	
		<linearGradient id="SVGID_00000183207859562610267960000014513608128770287773_" gradientUnits="userSpaceOnUse" x1="118.4625" y1="127.1077" x2="203" y2="127.1077">
		<stop  offset="1.198743e-03" style="stop-color:#FFFFFF;stop-opacity:0.3"/>
		<stop  offset="1" style="stop-color:#FFFFFF"/>
	</linearGradient>
	<path style="opacity:0.2;fill:url(#SVGID_00000183207859562610267960000014513608128770287773_);" d="M203,127.1c0-0.2,0-0.4,0-0.5
		c-0.3-5.8-5-10.4-10.9-10.4c-4.1,0-7.7,2.3-9.6,5.7h-58.9c-2.9,0-5.2,2.3-5.2,5.2s2.3,5.2,5.2,5.2h58.9c1.8,3.4,5.4,5.7,9.6,5.7
		c5.8,0,10.6-4.6,10.9-10.4C203,127.5,203,127.3,203,127.1z"/>
</g>
</svg>
